<?xml version="1.0" standalone="no"?>
<!DOCTYPE svg PUBLIC "-//W3C//DTD SVG 20010904//EN"
 "http://www.w3.org/TR/2001/REC-SVG-20010904/DTD/svg10.dtd">
<svg version="1.0" xmlns="http://www.w3.org/2000/svg"
 width="260.000000pt" height="260.000000pt" viewBox="0 0 260.000000 260.000000"
 preserveAspectRatio="xMidYMid meet">
<metadata>
Created by potrace 1.14, written by Peter Selinger 2001-2017
</metadata>
<g transform="translate(0.000000,260.000000) scale(0.100000,-0.100000)"
fill="#000000" stroke="none">
<path d="M1230 2140 c0 -5 -9 -12 -21 -15 -12 -4 -39 -23 -60 -42 -21 -19 -53
-37 -71 -40 -47 -7 -136 -50 -185 -89 -23 -19 -44 -34 -48 -34 -3 0 -16 -11
-29 -25 -18 -19 -30 -24 -61 -21 -23 3 -45 12 -52 23 -8 10 -19 18 -26 18 -16
1 -168 75 -189 93 -10 8 -18 12 -18 7 0 -4 -6 -3 -13 3 -18 15 -69 21 -89 11
-51 -26 -101 -94 -103 -139 0 -8 -3 -20 -7 -25 -4 -6 -3 -17 1 -24 5 -7 7 -26
5 -42 -3 -24 2 -33 34 -52 20 -13 54 -29 74 -36 21 -7 47 -25 58 -40 11 -16
34 -34 52 -41 132 -50 133 -51 134 -178 2 -179 18 -264 67 -357 6 -11 16 -31
23 -44 7 -13 18 -27 24 -31 13 -8 -9 -32 -70 -78 -19 -15 -38 -31 -41 -35 -9
-12 -58 -16 -65 -6 -8 13 -53 -1 -99 -30 -22 -14 -43 -24 -47 -23 -5 1 -8 -2
-8 -8 0 -5 -21 -25 -47 -45 -57 -44 -70 -70 -47 -96 12 -13 31 -19 61 -19 31
0 43 -4 43 -14 0 -8 8 -21 18 -28 13 -9 18 -26 17 -58 0 -39 3 -45 22 -48 13
-2 29 5 40 17 9 12 32 26 50 32 18 6 38 19 43 30 6 10 15 19 21 19 5 0 21 11
34 25 20 19 25 34 25 73 0 57 13 75 83 115 26 15 47 32 47 37 0 18 19 10 91
-37 131 -84 221 -110 385 -108 169 2 266 30 379 109 48 34 50 35 64 16 7 -11
46 -36 87 -55 49 -24 84 -49 108 -78 19 -23 62 -71 95 -107 34 -35 61 -68 61
-73 0 -17 122 -135 146 -141 13 -4 24 -11 24 -16 0 -16 56 -12 70 5 7 8 19 15
26 15 8 0 14 7 14 15 0 9 7 18 15 21 8 3 30 39 50 80 31 66 35 84 35 154 l0
79 -64 45 c-35 26 -69 46 -75 46 -6 0 -11 5 -11 10 0 6 -5 10 -11 10 -6 0 -45
23 -85 50 -40 27 -78 50 -83 50 -9 0 -110 66 -141 92 -17 15 -80 103 -80 113
0 3 6 13 14 21 40 39 40 319 1 409 -7 17 -18 47 -25 67 -6 21 -16 40 -21 43
-5 4 -9 11 -9 17 0 6 8 4 18 -5 38 -34 78 -12 117 62 8 17 20 31 25 31 6 0 10
7 10 15 0 8 3 15 8 15 4 0 12 8 17 18 6 10 29 47 52 83 24 35 43 71 43 80 0
48 -67 47 -200 -1 -47 -17 -89 -32 -95 -33 -5 -2 -40 -13 -77 -27 -59 -20 -66
-26 -57 -42 15 -27 -2 -22 -33 10 -14 16 -57 44 -95 62 -69 34 -79 38 -122 45
-13 2 -38 17 -55 34 -18 17 -37 31 -43 31 -6 0 -19 8 -29 18 -18 18 -124 28
-124 12z m-89 -344 c29 -37 87 -59 152 -58 62 1 95 16 134 59 27 31 42 27 124
-34 l62 -45 -24 -22 c-13 -12 -56 -47 -96 -79 -56 -44 -78 -56 -100 -53 -27 3
-85 30 -268 124 -44 23 -85 42 -91 42 -6 0 -17 7 -24 15 -10 12 -7 17 14 26
14 7 26 16 26 21 0 4 9 8 19 8 11 0 23 5 26 10 10 16 26 12 46 -14z m574 -268
c2 -9 -4 -19 -13 -22 -9 -4 -37 -17 -61 -30 -37 -19 -50 -21 -73 -12 -36 13
-35 20 5 47 17 12 42 33 53 46 12 12 26 23 32 23 5 0 13 8 17 18 6 14 10 11
22 -18 8 -19 17 -42 18 -52z m-805 -91 c114 -52 170 -77 195 -87 14 -5 25 -15
24 -22 0 -7 -29 -35 -64 -62 -35 -27 -83 -67 -107 -88 -24 -21 -45 -38 -48
-38 -15 0 -69 143 -75 197 -8 63 0 137 13 130 4 -2 32 -16 62 -30z m825 -18
c-6 -28 -8 -30 -25 -19 -13 8 -12 12 5 24 25 19 25 20 20 -5z m-411 -190 c-1
-13 -4 -41 -7 -61 -3 -21 -1 -40 4 -44 5 -3 7 -9 4 -14 -3 -5 24 -37 59 -73
l65 -63 -36 -13 c-52 -19 -219 -18 -265 2 -21 9 -38 14 -38 11 0 -3 -13 4 -29
15 -15 11 -30 18 -33 16 -2 -3 -15 6 -27 19 l-22 24 33 23 c18 13 37 29 41 36
4 7 12 13 18 13 5 0 20 10 32 23 12 12 48 42 80 66 31 24 57 50 57 57 0 12 5
12 33 1 24 -11 32 -19 31 -38z m149 -68 c23 -11 57 -35 76 -55 32 -33 34 -38
21 -60 -13 -26 -26 -23 -70 11 -8 6 -17 11 -20 10 -16 -6 -70 52 -76 81 -8 39
6 42 69 13z"/>
</g>
</svg>
